<svg height="560pt" viewBox="-17 -33 560.00169 560" width="560pt" xmlns="http://www.w3.org/2000/svg"><path d="m434.875 263.3125h-426.347656c-4.710938 0-8.527344-3.820312-8.527344-8.527344 0-4.707031 3.816406-8.527344 8.527344-8.527344h426.347656c4.714844 0 8.53125 3.820313 8.53125 8.527344 0 4.707032-3.816406 8.527344-8.53125 8.527344zm0 0"/><path d="m187.59375 425.324219c-4.710938 0-8.527344-3.816407-8.527344-8.527344v-341.078125c0-4.707031 3.816406-8.527344 8.527344-8.527344 4.714844 0 8.523438 3.820313 8.523438 8.527344v341.078125c0 4.710937-3.808594 8.527344-8.523438 8.527344zm0 0"/><path d="m187.59375 493.539062c-4.710938 0-8.527344-3.816406-8.527344-8.523437v-34.113281c0-4.628906 3.6875-8.40625 8.316406-8.515625l34.300782-.835938c75.21875-.003906 136.242187-61.027343 136.242187-136.035156v-118.511719c0-75.007812-61.023437-136.03125-136.03125-136.03125l-34.511719-.839844c-4.628906-.113281-8.316406-3.894531-8.316406-8.523437v-34.105469c0-4.707031 3.816406-8.527344 8.527344-8.527344 4.714844 0 8.523438 3.820313 8.523438 8.527344v25.785156l25.984374.632813c84.203126-.007813 152.878907 68.667969 152.878907 153.082031v118.511719c0 84.414063-68.675781 153.085937-153.085938 153.085937l-25.769531.625v25.789063c-.007812 4.707031-3.816406 8.523437-8.53125 8.523437zm0 0"/><path d="m434.875 297.417969c-1.613281 0-3.222656-.457031-4.628906-1.363281-2.433594-1.570313-3.898438-4.269532-3.898438-7.164063v-68.214844c0-2.804687 1.378906-5.4375 3.699219-7.027343 2.3125-1.597657 5.277344-1.941407 7.894531-.929688l81.59375 31.40625c3.203125 1.234375 5.367188 4.277344 5.464844 7.71875.085938 3.433594-1.882812 6.597656-5.023438 8.011719l-81.597656 36.8125c-1.113281.503906-2.3125.75-3.503906.75zm8.53125-64.320313v42.589844l50.953125-22.980469zm0 0"/><path d="m63.632812 295.550781c-1.175781 0-2.359374-.242187-3.507812-.761719-4.289062-1.941406-6.191406-6.992187-4.253906-11.285156l15.046875-33.277344-14.871094-29.214843c-2.140625-4.191407-.472656-9.328125 3.722656-11.464844 4.207031-2.15625 9.34375-.472656 11.464844 3.726563l16.742187 32.867187c1.179688 2.308594 1.238282 5.019531.175782 7.382813l-16.742188 37.011718c-1.417968 3.152344-4.527344 5.011719-7.777344 5.015625zm0 0"/><path d="m17.046875 295.550781c-1.175781 0-2.367187-.242187-3.507813-.761719-4.289062-1.941406-6.195312-6.992187-4.253906-11.285156l15.046875-33.277344-14.871093-29.214843c-2.140626-4.191407-.476563-9.328125 3.71875-11.464844 4.199218-2.15625 9.34375-.472656 11.46875 3.726563l16.738281 32.867187c1.183593 2.308594 1.238281 5.019531.175781 7.382813l-16.742188 37.011718c-1.425781 3.152344-4.527343 5.011719-7.773437 5.015625zm0 0"/></svg>