<?xml version="1.0" encoding="UTF-8" standalone="no"?>
<!-- Created with Inkscape (http://www.inkscape.org/) -->

<svg
   xmlns:dc="http://purl.org/dc/elements/1.1/"
   xmlns:cc="http://creativecommons.org/ns#"
   xmlns:rdf="http://www.w3.org/1999/02/22-rdf-syntax-ns#"
   xmlns:svg="http://www.w3.org/2000/svg"
   xmlns="http://www.w3.org/2000/svg"
   xmlns:sodipodi="http://sodipodi.sourceforge.net/DTD/sodipodi-0.dtd"
   xmlns:inkscape="http://www.inkscape.org/namespaces/inkscape"
   width="105.63082mm"
   height="49.577019mm"
   viewBox="0 0 105.63082 49.577019"
   version="1.1"
   id="svg18330"
   inkscape:version="0.92.0 r15299"
   sodipodi:docname="wayback burgers.svg">
  <defs
     id="defs18324">
    <clipPath
       id="clipPath11783"
       clipPathUnits="userSpaceOnUse">
      <path
         inkscape:connector-curvature="0"
         id="path11781"
         d="M 0,0 H 432 V 2160 H 0 Z" />
    </clipPath>
    <clipPath
       id="clipPath11767"
       clipPathUnits="userSpaceOnUse">
      <path
         inkscape:connector-curvature="0"
         id="path11765"
         d="M 0,0 H 432 V 2160 H 0 Z" />
    </clipPath>
    <clipPath
       id="clipPath11747"
       clipPathUnits="userSpaceOnUse">
      <path
         inkscape:connector-curvature="0"
         id="path11745"
         d="M 0,0 H 432 V 2160 H 0 Z" />
    </clipPath>
    <clipPath
       id="clipPath11667"
       clipPathUnits="userSpaceOnUse">
      <path
         inkscape:connector-curvature="0"
         id="path11665"
         d="M 0,0 H 432 V 2160 H 0 Z" />
    </clipPath>
  </defs>
  <sodipodi:namedview
     id="base"
     pagecolor="#ffffff"
     bordercolor="#666666"
     borderopacity="1.0"
     inkscape:pageopacity="0.0"
     inkscape:pageshadow="2"
     inkscape:zoom="2.268273"
     inkscape:cx="197.72752"
     inkscape:cy="91.799044"
     inkscape:document-units="mm"
     inkscape:current-layer="layer1"
     showgrid="false"
     fit-margin-top="0"
     fit-margin-left="0"
     fit-margin-right="0"
     fit-margin-bottom="0"
     inkscape:window-width="1280"
     inkscape:window-height="744"
     inkscape:window-x="-4"
     inkscape:window-y="-4"
     inkscape:window-maximized="1" />
  <metadata
     id="metadata18327">
    <rdf:RDF>
      <cc:Work
         rdf:about="">
        <dc:format>image/svg+xml</dc:format>
        <dc:type
           rdf:resource="http://purl.org/dc/dcmitype/StillImage" />
        <dc:title></dc:title>
      </cc:Work>
    </rdf:RDF>
  </metadata>
  <g
     inkscape:label="Layer 1"
     inkscape:groupmode="layer"
     id="layer1"
     transform="translate(39.447514,-100.6134)">
    <g
       id="g18702"
       transform="translate(0.5000002,-0.50000274)">
      <path
         d="m 13.886878,113.24341 -4.840111,0.38841 c -0.2070806,0.0166 -0.4134556,0.0977 -0.390525,0.39158 l 0.9172222,11.84663 c 0.012347,0.19826 0.1802694,0.36619 0.3802944,0.37783 0,0 3.5157834,-0.25365 5.3445834,-0.42933 2.676172,-0.25577 4.36245,-1.58821 4.08693,-4.11621 -0.246944,-2.08457 -1.838325,-2.60844 -2.374194,-2.72592 -0.06421,-0.0145 -0.08326,-0.0967 -0.03246,-0.13829 0.168981,-0.14005 1.244953,-0.77152 1.051984,-2.65818 -0.348898,-3.40078 -4.143728,-2.93652 -4.143728,-2.93652 m -2.119842,2.57563 c -0.01552,-0.17886 0.17145,-0.33126 0.346781,-0.35137 l 1.242483,-0.0995 c 1.7272,-0.13829 1.674636,1.39982 1.674636,1.39982 0,0 0.113595,1.40229 -1.4478,1.52753 l -1.242836,0.0998 c -0.162278,0.0134 -0.381,-0.1143 -0.395464,-0.27835 z m 2.471914,7.98054 -1.549753,0.12453 c -0.162983,0.0109 -0.305858,-0.13899 -0.318205,-0.30374 l -0.208845,-2.70052 c -0.01517,-0.17109 0.09137,-0.31538 0.257175,-0.3429 l 1.619603,-0.12982 c 1.956859,-0.15698 2.063397,1.48661 2.063397,1.48661 0,0 0.334081,1.68945 -1.863372,1.86584"
         style="fill:#000000;fill-opacity:1;fill-rule:nonzero;stroke:none;stroke-width:0.35277778"
         id="path11671"
         inkscape:connector-curvature="0" />
      <path
         d="m 46.734263,111.01936 c -0.01482,-0.21872 -0.226131,-0.39687 -0.442736,-0.37641 l -2.389717,0.19226 c -0.17533,0.0166 -0.291394,0.15169 -0.280105,0.32914 l 0.921102,11.8932 c 0.01411,0.21978 0.22225,0.39899 0.439209,0.37712 l 2.276475,-0.18239 c 0.174625,-0.0169 0.296333,-0.16051 0.285044,-0.33761 l -0.226483,-2.92135 c -0.0042,-0.0727 0.01446,-0.14287 0.05221,-0.20002 l 0.676981,-0.96485 c 0.192616,-0.24236 0.363713,-0.14817 0.481541,-0.0138 l 2.87267,3.92818 c 0.08714,0.10442 0.218722,0.16157 0.345016,0.14923 l 2.865261,-0.22966 c 0.274814,-0.0265 0.382411,-0.33373 0.189795,-0.55845 l -4.319059,-5.68254 c -0.02752,-0.036 -0.03034,-0.0857 -0.0074,-0.12524 l 3.258256,-5.64374 c 0.152752,-0.2353 -0.05433,-0.57538 -0.35172,-0.5782 l -2.77883,0.22331 c -0.116064,-0.001 -0.218017,0.0547 -0.275167,0.14781 l -3.052939,4.96923 c -0.05644,0.0914 -0.19438,0.0572 -0.202847,-0.0504 z"
         style="fill:#000000;fill-opacity:1;fill-rule:nonzero;stroke:none;stroke-width:0.35277778"
         id="path11675"
         inkscape:connector-curvature="0" />
      <path
         d="m -18.435362,122.47603 -2.299053,-6.21347 c -0.05821,-0.15629 -0.231775,-0.25436 -0.381705,-0.20991 l -2.622197,0.21061 c -0.144992,0.043 -0.214137,0.19932 -0.154164,0.35031 l 1.704269,4.32082 c 0.01094,0.0275 0.01235,0.0579 0.0039,0.0861 l -0.906992,3.09492 c -0.07373,0.24976 -0.437092,0.22895 -0.542572,-0.0314 l -3.047295,-7.35224 c -0.06103,-0.15028 -0.227894,-0.24306 -0.374297,-0.20249 l -2.571397,0.20637 c -0.151342,0.042 -0.221897,0.20461 -0.155928,0.35948 l 4.967111,11.71434 c 0.05609,0.13088 0.194028,0.21449 0.328084,0.20038 l 2.177697,-0.17498 c 0.104069,-0.0109 0.185914,-0.0794 0.213783,-0.1771 l 1.057628,-3.72921 c 0.07161,-0.25435 0.441325,-0.23283 0.545394,0.0314 l 1.314803,3.38808 c 0.05256,0.13405 0.190147,0.22225 0.327378,0.20955 l 2.216855,-0.17816 c 0.104423,-0.01 0.187325,-0.0769 0.216253,-0.17462 l 3.635375,-12.40296 c 0.05397,-0.18027 -0.09454,-0.38136 -0.291042,-0.39476 l -2.629252,0.21131 c -0.124531,-0.009 -0.230011,0.0656 -0.26282,0.17957 l -1.923344,6.71618 c -0.07373,0.25471 -0.446617,0.22895 -0.546453,-0.0381"
         style="fill:#000000;fill-opacity:1;fill-rule:nonzero;stroke:none;stroke-width:0.35277778"
         id="path11679"
         inkscape:connector-curvature="0" />
      <path
         d="m -1.5331798,126.70555 -5.1311527,-11.53336 c -0.072319,-0.16263 -0.244475,-0.26529 -0.4120444,-0.24624 l -2.7597805,0.22154 c -0.1686276,0.008 -0.3231446,0.13688 -0.3693586,0.30868 l -3.292475,12.20999 c -0.06209,0.23037 0.09243,0.43568 0.318911,0.42228 l 2.464153,-0.19791 c 0.17145,-0.01 0.325967,-0.13123 0.367242,-0.30692 l 0.4981221,-1.94733 c 0.041275,-0.17533 0.1954388,-0.31044 0.3668888,-0.32103 l 3.6219694,-0.29069 c 0.1707444,-0.0166 0.3436055,0.0917 0.4116917,0.25824 l 0.7912805,1.84432 c 0.068086,0.16686 0.2391833,0.26176 0.4102805,0.24483 l 2.4641528,-0.19791 c 0.225425,-0.0229 0.3467805,-0.25012 0.2501194,-0.46849 m -7.5409776,-3.57646 c -0.080433,0.007 -0.1442861,-0.0692 -0.1255889,-0.14958 l 0.8212667,-3.47274 c 0.05468,-0.27023 0.4427361,-0.30339 0.5326944,-0.0427 l 1.3454944,3.29883 c 0.031044,0.0765 -0.019756,0.16122 -0.1005417,0.16757 z"
         style="fill:#000000;fill-opacity:1;fill-rule:nonzero;stroke:none;stroke-width:0.35277778"
         id="path11683"
         inkscape:connector-curvature="0" />
      <path
         d="m 32.306216,123.9904 -5.131153,-11.53372 c -0.07232,-0.16227 -0.244475,-0.26529 -0.412044,-0.24588 l -2.760133,0.22119 c -0.168275,0.008 -0.322792,0.13723 -0.369006,0.30868 l -3.292828,12.20964 c -0.06174,0.23071 0.09313,0.43638 0.319264,0.42298 l 2.464506,-0.19791 c 0.17145,-0.0102 0.325261,-0.13159 0.366889,-0.30692 l 0.498122,-1.94768 c 0.04127,-0.17498 0.195792,-0.31009 0.366889,-0.32068 l 3.621969,-0.29069 c 0.170745,-0.0169 0.343606,0.0917 0.411692,0.25788 l 0.791633,1.84433 c 0.06773,0.16686 0.238831,0.26176 0.409928,0.24482 l 2.464505,-0.1979 c 0.225073,-0.0226 0.346428,-0.25012 0.249767,-0.46814 m -7.540978,-3.57646 c -0.08043,0.006 -0.144286,-0.0695 -0.125588,-0.14958 l 0.821619,-3.47274 c 0.05433,-0.27023 0.442736,-0.30339 0.532342,-0.043 l 1.345494,3.29918 c 0.03104,0.0765 -0.01976,0.16086 -0.100542,0.16757 z"
         style="fill:#000000;fill-opacity:1;fill-rule:nonzero;stroke:none;stroke-width:0.35277778"
         id="path11687"
         inkscape:connector-curvature="0" />
      <path
         d="m 41.603533,120.70695 c -0.06562,-0.17709 -0.262819,-0.25576 -0.436386,-0.17745 l -0.611717,0.24624 c -0.846314,0.39053 -2.242961,0.43921 -3.0861,0.10125 -1.158169,-0.46426 -1.824919,-1.72544 -1.910644,-3.03601 -0.11677,-1.30845 0.347133,-2.66029 1.419578,-3.30376 0.78105,-0.46814 2.167819,-0.64276 3.063522,-0.39194 l 0.642055,0.1457 c 0.18415,0.0494 0.366184,-0.06 0.404284,-0.24518 0.106891,-0.52211 0.310444,-1.51306 0.404283,-1.93181 0.144639,-0.647 -0.448733,-0.72602 -0.979311,-0.84773 -2.898069,-0.6671 -7.083072,0.17604 -8.088842,4.23687 -0.20955,0.84596 -0.265288,1.73319 -0.179916,2.60385 0.04974,0.87312 0.241653,1.7406 0.578555,2.54211 1.618192,3.85022 5.881159,4.01567 8.641292,2.8949 0.504825,-0.20532 1.078794,-0.37747 0.836436,-0.99342 -0.156633,-0.39829 -0.511175,-1.34479 -0.697089,-1.84362"
         style="fill:#000000;fill-opacity:1;fill-rule:nonzero;stroke:none;stroke-width:0.35277778"
         id="path11691"
         inkscape:connector-curvature="0" />
      <path
         d="m 6.9222331,113.79868 -2.5301222,0.2032 c -0.1361722,-0.01 -0.2561166,0.0614 -0.3122083,0.17745 l -1.8288,4.15784 c -0.058208,0.121 -0.1767416,0.17815 -0.3009194,0.17321 -0.1220611,0.0247 -0.2480028,-0.0127 -0.32385,-0.12312 l -2.44651382,-3.81459 c -0.0726722,-0.10583 -0.20249448,-0.15663 -0.33549168,-0.12558 l -2.5301221,0.2032 c -0.2652889,0.0614 -0.4060473,0.38488 -0.2592917,0.59407 l 4.39490545,6.483 c 0.03175,0.0444 0.0599722,0.17674 0.0659695,0.23389 l 0.36406666,4.70324 c 0.0179917,0.17321 0.13511389,0.29456 0.30726949,0.28539 l 2.8155194,-0.22613 c 0.17145,-0.018 0.268111,-0.15628 0.2592916,-0.33055 l -0.3637138,-4.70359 c -0.00353,-0.0572 0.00423,-0.19226 0.028575,-0.2413 l 3.3429221,-7.10388 c 0.1132416,-0.23001 -0.0762,-0.52705 -0.3474862,-0.54575"
         style="fill:#000000;fill-opacity:1;fill-rule:nonzero;stroke:none;stroke-width:0.35277778"
         id="path11695"
         inkscape:connector-curvature="0" />
      <path
         d="m -6.3948808,131.48548 c -0.00811,-0.10195 0.067028,-0.19121 0.1672167,-0.19932 l 1.7208499,-0.13829 c 0.4515556,-0.036 0.803275,0.0469 1.0548056,0.24906 0.2515305,0.20214 0.3933472,0.51118 0.4254499,0.92675 0.019756,0.25188 -0.00847,0.46426 -0.085019,0.63782 -0.034925,0.079 -0.08008,0.15381 -0.1354667,0.22437 -0.082197,0.10372 -0.0381,0.25612 0.086783,0.29527 0.054328,0.0169 0.1051277,0.0363 0.1527527,0.0589 0.1337028,0.0624 0.244475,0.14393 0.333375,0.24341 0.088547,0.0995 0.155575,0.21449 0.2007306,0.34432 0.044803,0.12982 0.073025,0.26987 0.085019,0.42015 0.017992,0.23425 -0.006,0.44521 -0.072672,0.63324 -0.066675,0.18768 -0.1672166,0.34925 -0.3030361,0.48472 -0.1361722,0.13546 -0.3058583,0.24235 -0.5097639,0.32138 -0.2035527,0.0787 -0.4356805,0.12841 -0.6963833,0.14922 l -1.8700749,0.14993 c -0.1001889,0.008 -0.1880306,-0.0681 -0.1964973,-0.17039 z m 1.4142861,1.67569 0.2345972,-0.0187 c 0.3993444,-0.0325 0.5870222,-0.20991 0.561975,-0.53234 -0.024694,-0.32244 -0.2374195,-0.46814 -0.6367639,-0.43604 l -0.2345972,0.0187 z m 0.1573389,2.02953 0.2801055,-0.0226 c 0.3213806,-0.0258 0.5482167,-0.0864 0.6808611,-0.18133 0.1326445,-0.0952 0.1912056,-0.23566 0.1770945,-0.42122 -0.014464,-0.18591 -0.094192,-0.31503 -0.2402417,-0.38805 -0.1453445,-0.0727 -0.3785306,-0.0963 -0.6999111,-0.0709 l -0.2804583,0.0229 z"
         style="fill:#000000;fill-opacity:1;fill-rule:nonzero;stroke:none;stroke-width:0.35277778"
         id="path11699"
         inkscape:connector-curvature="0" />
      <path
         d="m 0.1511577,130.77431 c 0.111125,-0.009 0.20849166,0.0755 0.21695833,0.18874 l 0.19473333,2.51389 c 0.0116417,0.1457 0.028575,0.29492 0.0511528,0.44662 0.022225,0.15169 0.0659694,0.28716 0.12982222,0.40675 0.0638528,0.11924 0.15733889,0.21308 0.28081112,0.28116 0.1231194,0.0681 0.2913944,0.0931 0.5041194,0.0762 0.212725,-0.0173 0.3735917,-0.0695 0.4829528,-0.15557 0.1090083,-0.0868 0.1869722,-0.19403 0.2338916,-0.32244 0.046567,-0.12841 0.069497,-0.26952 0.068792,-0.42263 -0.00106,-0.1531 -0.00706,-0.30339 -0.018344,-0.44908 L 2.1013132,130.8237 c -0.00882,-0.11289 0.074436,-0.21167 0.1855611,-0.22084 l 0.8681861,-0.0695 c 0.1107722,-0.009 0.2081389,0.0755 0.2169583,0.18874 l 0.2084917,2.6931 c 0.059972,0.77788 -0.070556,1.36032 -0.3926417,1.74661 -0.3217333,0.38594 -0.8456083,0.60819 -1.5705666,0.66639 -0.72566386,0.0586 -1.27811385,-0.0776 -1.65770273,-0.40745 -0.37958888,-0.32985 -0.59901665,-0.88407 -0.65934165,-1.66194 l -0.20849166,-2.69346 c -0.008819,-0.11289 0.0740833,-0.21202 0.1855611,-0.22119 z"
         style="fill:#000000;fill-opacity:1;fill-rule:nonzero;stroke:none;stroke-width:0.35277778"
         id="path11703"
         inkscape:connector-curvature="0" />
      <path
         d="m 9.4458642,135.05982 -1.0967861,0.0878 c -0.064911,0.005 -0.1284111,-0.0236 -0.1679222,-0.0762 l -0.90805,-1.2125 c -0.1160639,-0.15522 -0.3591278,-0.0607 -0.3443111,0.13371 l 0.082197,1.06644 c 0.00847,0.10725 -0.070203,0.20144 -0.1760361,0.21026 l -0.8935861,0.0716 c -0.1058333,0.008 -0.1986139,-0.072 -0.2070805,-0.17956 l -0.3566581,-4.6104 c -0.00847,-0.1076 0.070556,-0.20179 0.1763888,-0.21061 l 1.7952861,-0.14393 c 0.2737556,-0.0219 0.5154083,-3.6e-4 0.7260167,0.0649 0.2106083,0.0656 0.38735,0.16369 0.5312833,0.29457 0.1432278,0.13123 0.2554111,0.28645 0.3372555,0.46707 0.081845,0.17992 0.1312334,0.37642 0.1474611,0.58879 0.029281,0.38029 -0.037042,0.69568 -0.1989666,0.94686 -0.1202972,0.18626 -0.2913945,0.33443 -0.5129389,0.4445 -0.1164167,0.0579 -0.1509889,0.2099 -0.063853,0.30797 l 1.2583583,1.42275 c 0.1061861,0.1203 0.030692,0.31292 -0.1280583,0.32597 m -2.6334861,-2.5714 0.2409473,-0.0194 c 0.2518833,-0.0201 0.441325,-0.0892 0.5676194,-0.20532 0.1262944,-0.11712 0.1820333,-0.27552 0.1661583,-0.47448 -0.015169,-0.19826 -0.094544,-0.34608 -0.2370666,-0.44097 -0.142875,-0.0956 -0.3404306,-0.133 -0.5923139,-0.11289 l -0.2409472,0.0194 z"
         style="fill:#000000;fill-opacity:1;fill-rule:nonzero;stroke:none;stroke-width:0.35277778"
         id="path11707"
         inkscape:connector-curvature="0" />
      <path
         d="m 13.624834,131.90839 2.192161,-0.17568 c 0.09455,-0.007 0.178153,0.0653 0.18415,0.16157 0.01129,0.1972 0.01517,0.38065 0.01129,0.55033 -0.0053,0.21767 -0.03281,0.42263 -0.08361,0.61348 -0.07126,0.26811 -0.176742,0.50941 -0.3175,0.72284 -0.141111,0.21379 -0.311503,0.39653 -0.511881,0.54822 -0.200025,0.1517 -0.423333,0.27305 -0.669572,0.36407 -0.246592,0.0907 -0.508706,0.14781 -0.786695,0.16968 -0.382058,0.031 -0.735894,-0.006 -1.060097,-0.1083 -0.325261,-0.10301 -0.6096,-0.26141 -0.853369,-0.47519 -0.24377,-0.21414 -0.441325,-0.47872 -0.592314,-0.79305 -0.150989,-0.31538 -0.242006,-0.66921 -0.272344,-1.06291 -0.03034,-0.38912 0.0039,-0.75072 0.103011,-1.08585 0.09807,-0.33514 0.252588,-0.62618 0.462844,-0.87454 0.210256,-0.24836 0.470958,-0.44909 0.782814,-0.6036 0.31115,-0.15381 0.66428,-0.24659 1.059744,-0.27834 0.512234,-0.0409 0.970492,0.0353 1.374775,0.22965 0.354542,0.1711 0.654403,0.44203 0.899936,0.81351 0.05609,0.0843 0.02258,0.20108 -0.06703,0.2473 l -0.860425,0.44626 c -0.07726,0.0395 -0.173567,0.0159 -0.219075,-0.0586 -0.118534,-0.19438 -0.255764,-0.33479 -0.411339,-0.42122 -0.189442,-0.10513 -0.399345,-0.14781 -0.629356,-0.12982 -0.191558,0.0155 -0.36195,0.066 -0.512586,0.15134 -0.151342,0.0857 -0.276578,0.20038 -0.376767,0.34396 -0.100188,0.14393 -0.174625,0.31291 -0.222955,0.50835 -0.04798,0.19509 -0.06315,0.41028 -0.04516,0.64417 0.01658,0.21238 0.05856,0.40711 0.127353,0.5835 0.06809,0.17745 0.161572,0.32773 0.280458,0.45155 0.118887,0.12383 0.261762,0.2159 0.42792,0.27588 0.166158,0.0603 0.355953,0.0815 0.568678,0.0646 0.126294,-0.01 0.246239,-0.0342 0.361244,-0.0723 0.115358,-0.0385 0.216958,-0.0931 0.305506,-0.16475 0.08819,-0.0716 0.15875,-0.16052 0.212019,-0.26705 0.02117,-0.043 0.03881,-0.0893 0.05362,-0.13865 0.03422,-0.11782 -0.0575,-0.23459 -0.1778,-0.22507 l -0.659341,0.0529 c -0.09419,0.007 -0.176389,-0.0639 -0.183798,-0.15981 l -0.05151,-0.66146 c -0.0071,-0.0959 0.06315,-0.17956 0.156986,-0.18697"
         style="fill:#000000;fill-opacity:1;fill-rule:nonzero;stroke:none;stroke-width:0.35277778"
         id="path11711"
         inkscape:connector-curvature="0" />
      <path
         d="m 20.265876,130.26794 -1.083381,0.0868 c -0.120297,0.01 -0.209902,0.11642 -0.200377,0.23883 l 0.03069,0.393 c 0.0092,0.12241 0.1143,0.21343 0.233892,0.2039 l 0.998714,-0.0801 c 0.120297,-0.01 0.225072,0.0815 0.234597,0.20356 l 0.05115,0.65863 c 0.0092,0.12206 -0.08008,0.22895 -0.200378,0.23848 l -0.998361,0.0804 c -0.119944,0.01 -0.20955,0.11607 -0.200378,0.23848 l 0.03246,0.41981 c 0.0095,0.12206 0.114653,0.21307 0.234597,0.20355 l 1.083381,-0.0868 c 0.119944,-0.01 0.225072,0.0815 0.234597,0.2039 l 0.0508,0.65828 c 0.0095,0.12242 -0.08008,0.22931 -0.200378,0.23848 l -2.359731,0.18944 c -0.120297,0.01 -0.225072,-0.0815 -0.234597,-0.2039 l -0.35313,-4.55754 c -0.0095,-0.12241 0.08008,-0.2293 0.200377,-0.23883 l 2.360084,-0.18944 c 0.119944,-0.01 0.225072,0.0815 0.234597,0.20355 l 0.0508,0.65864 c 0.0095,0.12206 -0.08008,0.22895 -0.200025,0.23883"
         style="fill:#000000;fill-opacity:1;fill-rule:nonzero;stroke:none;stroke-width:0.35277778"
         id="path11715"
         inkscape:connector-curvature="0" />
      <path
         d="m 26.458255,133.69433 -1.199797,0.0967 c -0.05151,0.004 -0.1016,-0.0187 -0.132997,-0.0607 l -1.003653,-1.34055 c -0.09208,-0.12242 -0.284692,-0.0476 -0.272345,0.10583 l 0.09631,1.24495 c 0.0067,0.0854 -0.05574,0.16016 -0.1397,0.16651 l -0.973667,0.078 c -0.08361,0.007 -0.156633,-0.0564 -0.163336,-0.14182 l -0.363361,-4.69159 c -0.0067,-0.0857 0.05574,-0.15981 0.1397,-0.16686 l 1.83515,-0.14676 c 0.273755,-0.0222 0.515761,-7e-4 0.726016,0.0646 0.210609,0.066 0.38735,0.16369 0.531284,0.29457 0.143228,0.13123 0.255764,0.28645 0.337608,0.46672 0.08185,0.18063 0.130528,0.37642 0.147461,0.58879 0.02928,0.38065 -0.03704,0.69568 -0.199319,0.94686 -0.129117,0.20002 -0.316442,0.3563 -0.561975,0.46813 -0.09384,0.0427 -0.119945,0.16545 -0.05115,0.24342 l 1.348669,1.52541 c 0.08431,0.0956 0.02434,0.248 -0.100894,0.25788 m -2.714625,-2.56505 0.2413,-0.019 c 0.251883,-0.0205 0.440619,-0.0889 0.567267,-0.20567 0.125941,-0.11712 0.182033,-0.27516 0.166158,-0.47378 -0.01517,-0.19896 -0.09454,-0.34607 -0.237067,-0.44132 -0.142875,-0.0953 -0.340077,-0.133 -0.592313,-0.11289 l -0.2413,0.0194 z"
         style="fill:#000000;fill-opacity:1;fill-rule:nonzero;stroke:none;stroke-width:0.35277778"
         id="path11719"
         inkscape:connector-curvature="0" />
      <path
         d="m 30.775161,129.37925 c -0.04868,0.11924 -0.186267,0.16545 -0.299156,0.10689 -0.07761,-0.0406 -0.154869,-0.073 -0.231069,-0.0963 -0.143228,-0.0444 -0.2794,-0.061 -0.409575,-0.0504 -0.164747,0.013 -0.295981,0.0639 -0.3937,0.15134 -0.09807,0.0882 -0.142169,0.19649 -0.132292,0.32491 0.0067,0.0882 0.03881,0.1591 0.09455,0.21237 0.0568,0.0533 0.129116,0.0974 0.216958,0.13229 0.08749,0.0356 0.185914,0.0642 0.294217,0.0868 0.108655,0.0226 0.216253,0.0469 0.323144,0.0741 0.426861,0.10795 0.746125,0.27269 0.957439,0.49353 0.210961,0.22119 0.331258,0.52141 0.360892,0.90206 0.01975,0.25646 -0.0046,0.49177 -0.07303,0.70661 -0.06844,0.21449 -0.178153,0.40252 -0.329142,0.56374 -0.151694,0.16122 -0.342194,0.29175 -0.5715,0.39264 -0.230364,0.10054 -0.494594,0.16334 -0.79375,0.18697 -0.557036,0.0448 -1.089025,-0.0646 -1.595614,-0.32914 -0.09842,-0.0515 -0.13723,-0.17462 -0.09349,-0.27799 l 0.285045,-0.66887 c 0.0515,-0.12065 0.19685,-0.16686 0.306211,-0.0974 0.132997,0.085 0.263525,0.15028 0.391583,0.19579 0.192969,0.0691 0.380294,0.0967 0.562681,0.0815 0.208138,-0.0166 0.359127,-0.0776 0.453672,-0.18309 0.09419,-0.10513 0.136525,-0.22013 0.127353,-0.34361 -0.0064,-0.0755 -0.02434,-0.1397 -0.05433,-0.19297 -0.03069,-0.0529 -0.07796,-0.10018 -0.141817,-0.14181 -0.06491,-0.0413 -0.146755,-0.0783 -0.247297,-0.11042 -0.100895,-0.0317 -0.22225,-0.0663 -0.364772,-0.10407 -0.168981,-0.0395 -0.334786,-0.0854 -0.49777,-0.13688 -0.163336,-0.0512 -0.310797,-0.12523 -0.442736,-0.22154 -0.131939,-0.096 -0.241653,-0.22155 -0.329847,-0.37677 -0.08855,-0.15557 -0.142169,-0.35666 -0.161219,-0.60431 -0.01905,-0.24765 0.0035,-0.47554 0.06844,-0.68262 0.06421,-0.20779 0.163689,-0.38947 0.297745,-0.54469 0.134408,-0.15522 0.303036,-0.28117 0.507647,-0.37783 0.203906,-0.0963 0.436033,-0.15487 0.696031,-0.17603 0.243063,-0.0198 0.49918,-0.006 0.768702,0.0416 0.195086,0.0342 0.385586,0.0857 0.572559,0.15416 0.116064,0.0427 0.176036,0.17357 0.128764,0.28963 z"
         style="fill:#000000;fill-opacity:1;fill-rule:nonzero;stroke:none;stroke-width:0.35277778"
         id="path11723"
         inkscape:connector-curvature="0" />
      <path
         d="m 33.421735,128.05175 c 0.102306,-0.008 0.199672,0.003 0.292806,0.0339 0.09278,0.031 0.1778,0.0801 0.255411,0.14746 0.0762,0.066 0.135466,0.14358 0.179211,0.23213 0.04269,0.0889 0.06809,0.18344 0.0762,0.28469 0.0078,0.10442 -0.0028,0.2032 -0.03246,0.29598 -0.02999,0.0931 -0.07726,0.17744 -0.142522,0.254 -0.06879,0.0787 -0.147108,0.14181 -0.233539,0.18732 -0.08678,0.0462 -0.179564,0.073 -0.277636,0.0808 -0.09984,0.008 -0.195439,-0.004 -0.287867,-0.0353 -0.09208,-0.0314 -0.176741,-0.0811 -0.254705,-0.14852 -0.07549,-0.0663 -0.136172,-0.14287 -0.180622,-0.23107 -0.0441,-0.0878 -0.0702,-0.18203 -0.07832,-0.28363 -0.0078,-0.1016 0.0039,-0.19967 0.03493,-0.29492 0.03069,-0.0952 0.07973,-0.18345 0.147461,-0.26353 0.0635,-0.0773 0.137936,-0.13793 0.222603,-0.18168 0.08502,-0.0437 0.178153,-0.0695 0.279047,-0.0776 m 0.716492,0.70944 c -0.0067,-0.091 -0.02928,-0.17639 -0.06738,-0.25471 -0.0381,-0.0783 -0.09102,-0.14676 -0.158044,-0.20496 -0.138642,-0.12065 -0.300214,-0.17357 -0.484011,-0.15911 -0.08855,0.007 -0.170392,0.0296 -0.245181,0.0677 -0.07479,0.0377 -0.140406,0.091 -0.196497,0.1591 -0.05962,0.0716 -0.103011,0.14922 -0.129822,0.23354 -0.02716,0.0843 -0.03704,0.17074 -0.03034,0.25964 0.0071,0.0885 0.02999,0.17145 0.0695,0.24801 0.03916,0.0769 0.09278,0.14534 0.159808,0.20531 0.06738,0.0596 0.141464,0.10301 0.222956,0.12982 0.08149,0.0265 0.164747,0.0363 0.250825,0.03 0.08819,-0.007 0.170744,-0.0307 0.248003,-0.0702 0.0769,-0.0395 0.145344,-0.0938 0.205316,-0.16404 0.05786,-0.067 0.09948,-0.14111 0.125589,-0.22261 0.02646,-0.0815 0.03634,-0.16721 0.02928,-0.25752 m -0.671336,-0.39864 c 0.236713,-0.0187 0.360538,0.0512 0.373238,0.21061 0.0042,0.06 -0.0095,0.11218 -0.04127,0.15592 -0.0321,0.0437 -0.07902,0.0734 -0.140405,0.09 l 0.221897,0.38171 -0.159808,0.0127 -0.207786,-0.3616 -0.18027,0.0148 0.02893,0.3757 -0.142522,0.0113 -0.06773,-0.86571 z m -0.1651,0.10901 0.02328,0.29986 0.149225,-0.012 c 0.07902,-0.006 0.136525,-0.0215 0.171803,-0.0459 0.03598,-0.024 0.0515,-0.0635 0.04727,-0.11818 -0.0042,-0.0564 -0.02611,-0.0945 -0.06597,-0.11465 -0.04022,-0.0205 -0.100188,-0.0275 -0.180269,-0.0208 z"
         style="fill:#000000;fill-opacity:1;fill-rule:nonzero;stroke:none;stroke-width:0.35277778"
         id="path11727"
         inkscape:connector-curvature="0" />
      <path
         d="m 7.892372,139.07697 c -0.070908,-0.0444 -0.1382889,-0.0737 -0.2264833,-0.0667 -0.1421695,0.0113 -0.2208389,0.13723 -0.2099028,0.2741 0.00635,0.0868 0.032103,0.14535 0.0889,0.20955 l 0.2130778,0.2025 c 0.1901472,0.16757 0.3012722,0.29104 0.3217333,0.55986 0.021519,0.27904 -0.130175,0.53163 -0.4169833,0.55527 -0.1012472,0.008 -0.2067278,-0.013 -0.2921,-0.0727 l -0.020461,-0.26529 c 0.082197,0.0511 0.1629833,0.09 0.2642305,0.0818 0.1598083,-0.0131 0.2173111,-0.14711 0.2060222,-0.29422 -0.031044,-0.39475 -0.5820833,-0.43038 -0.6226527,-0.95108 -0.02152,-0.27905 0.1054805,-0.51929 0.3975805,-0.54293 0.098072,-0.008 0.1926167,3.5e-4 0.2790472,0.0437 z"
         style="fill:#000000;fill-opacity:1;fill-rule:nonzero;stroke:none;stroke-width:0.35277778"
         id="path11731"
         inkscape:connector-curvature="0" />
      <path
         d="m 9.3718535,140.64747 -0.2585861,0.0208 -0.1534583,-1.98402 0.2585861,-0.0212 z"
         style="fill:#000000;fill-opacity:1;fill-rule:nonzero;stroke:none;stroke-width:0.35277778"
         id="path11735"
         inkscape:connector-curvature="0" />
      <path
         d="m 10.574093,139.14785 0.09031,0.66287 0.0568,0.72884 -0.258939,0.0208 -0.153458,-1.98437 0.248003,-0.0201 0.571853,1.47108 0.0049,-0.005 -0.123473,-0.78987 -0.05503,-0.70767 0.258233,-0.0208 0.154164,1.98366 -0.240594,0.0198 -0.573264,-1.4926 -0.0049,0.006 z"
         style="fill:#000000;fill-opacity:1;fill-rule:nonzero;stroke:none;stroke-width:0.35277778"
         id="path11739"
         inkscape:connector-curvature="0" />
      <path
         d="m 13.080428,138.6263 c -0.05397,-0.0222 -0.109714,-0.0416 -0.169333,-0.0367 -0.361598,0.0289 -0.322792,0.56621 -0.303742,0.81315 0.02046,0.26318 0.07902,0.75636 0.433564,0.72778 0.0568,-0.004 0.104775,-0.0215 0.152047,-0.0519 l 0.01764,0.23177 c -0.06138,0.0473 -0.127353,0.0656 -0.202142,0.072 -0.527402,0.0423 -0.641702,-0.52352 -0.673452,-0.93874 -0.03069,-0.39758 -0.03246,-1.0541 0.497769,-1.09679 0.08749,-0.007 0.150989,0.001 0.228953,0.0399 z"
         style="fill:#000000;fill-opacity:1;fill-rule:nonzero;stroke:none;stroke-width:0.35277778"
         id="path11751"
         inkscape:connector-curvature="0" />
      <path
         d="m 14.729851,138.22128 0.01764,0.2286 -0.437092,0.0353 0.04833,0.62371 0.390525,-0.0314 0.01729,0.22895 -0.38982,0.0314 0.05186,0.67381 0.436739,-0.0353 0.01799,0.2293 -0.695325,0.0554 -0.153811,-1.98402 z"
         style="fill:#000000;fill-opacity:1;fill-rule:nonzero;stroke:none;stroke-width:0.35277778"
         id="path11755"
         inkscape:connector-curvature="0" />
      <path
         d="m 17.066466,138.03381 0.07726,0.59196 0.159809,-0.0127 -0.01482,-0.59725 z"
         style="fill:#000000;fill-opacity:1;fill-rule:nonzero;stroke:none;stroke-width:0.35277778"
         id="path11759"
         inkscape:connector-curvature="0" />
      <path
         d="m 18.693722,139.89916 0.323497,-0.85972 -0.0056,-0.005 c -0.05256,0.06 -0.104775,0.0875 -0.190147,0.0949 -0.302331,0.0236 -0.362656,-0.31291 -0.381,-0.54963 -0.02399,-0.30797 -0.02893,-0.67804 0.364066,-0.70943 0.392995,-0.0314 0.449439,0.32914 0.473428,0.63958 0.03351,0.43427 -0.05574,0.72249 -0.207081,1.12078 l -0.0956,0.24624 z m 0.316442,-1.42064 c -0.0088,-0.11324 -0.03246,-0.38382 -0.187678,-0.37147 -0.15487,0.0127 -0.130175,0.29915 -0.121356,0.41204 0.0092,0.11607 0.02681,0.37924 0.181681,0.36654 0.168628,-0.0134 0.136172,-0.29386 0.127353,-0.40711"
         style="fill:#000000;fill-opacity:1;fill-rule:nonzero;stroke:none;stroke-width:0.35277778"
         id="path11771"
         inkscape:connector-curvature="0" />
      <path
         d="m 20.773569,137.73621 0.153458,1.98437 -0.253294,0.0198 -0.136525,-1.75472 -0.1905,0.0152 -0.01764,-0.22895 z"
         style="fill:#000000;fill-opacity:1;fill-rule:nonzero;stroke:none;stroke-width:0.35277778"
         id="path11775"
         inkscape:connector-curvature="0" />
      <path
         d="M 32.10097,110.22018 11.47864,103.4539 c -0.124178,-0.0409 -0.259292,-0.0296 -0.375356,0.0303 l -19.091627,9.85061 c -0.1513417,0.078 -0.3354917,0.0166 -0.4123972,-0.13687 l -0.4706056,-0.9458 c -0.076906,-0.15381 -0.016228,-0.34184 0.1351139,-0.41981 L 10.962526,101.66779 c 0.116769,-0.06 0.251531,-0.0709 0.375356,-0.03 l 21.270382,6.97936 c 0.161573,0.0526 0.249767,0.2286 0.197909,0.39264 l -0.319617,1.00894 c -0.05221,0.1644 -0.224367,0.254 -0.385586,0.20144"
         style="fill:#000000;fill-opacity:1;fill-rule:nonzero;stroke:none;stroke-width:0.35277778"
         id="path11787"
         inkscape:connector-curvature="0" />
      <path
         d="m 14.687824,150.15504 -53.823304,-21.6983 c -0.395817,-0.15946 -0.421217,-0.72073 -0.04092,-0.91652 l 8.03275,-4.14584 c 0.130528,-0.0674 0.289984,-0.0138 0.355953,0.11888 l 0.508706,1.02129 c 0.06597,0.13265 0.01376,0.29493 -0.116417,0.36266 l -4.755444,2.45357 c -0.379942,0.19579 -0.354895,0.75671 0.04163,0.91687 l 49.652413,20.01696 c 0.141817,0.0572 0.301978,0.0445 0.433917,-0.0353 l 45.958477,-27.68917 c 0.366536,-0.22084 0.305505,-0.77893 -0.100189,-0.91228 l -5.035197,-1.65171 c -0.160867,-0.0529 -0.249414,-0.2286 -0.197203,-0.39264 l 0.319264,-1.00965 c 0.05186,-0.16369 0.224366,-0.254 0.385586,-0.20108 l 8.532636,2.79999 c 0.405694,0.133 0.466725,0.6911 0.100189,0.91193 l -49.818572,30.0154 c -0.131938,0.0797 -0.2921,0.0921 -0.434269,0.0349"
         style="fill:#000000;fill-opacity:1;fill-rule:nonzero;stroke:none;stroke-width:0.35277778"
         id="path11791"
         inkscape:connector-curvature="0" />
    </g>
  </g>
</svg>
