<?xml version="1.0" encoding="iso-8859-1"?>
<!-- Generator: Adobe Illustrator 19.0.0, SVG Export Plug-In . SVG Version: 6.00 Build 0)  -->
<svg version="1.1" id="Capa_1" xmlns="http://www.w3.org/2000/svg" xmlns:xlink="http://www.w3.org/1999/xlink" x="0px" y="0px"
	 viewBox="0 0 460.899 460.899" style="enable-background:new 0 0 460.899 460.899;" xml:space="preserve">
<g>
	<path d="M368.981,182.819c-27.347-24.533-43.031-58.264-43.031-92.543V64.174l33.073-38.586c4.161-4.854,4.926-11.647,1.947-17.306
		c-2.978-5.658-9.011-8.872-15.367-8.192L155.946,20.41c-11.971,1.282-20.997,11.327-20.997,23.365v2.123H96.927
		c-23.146,0-41.978,18.831-41.978,41.978v91.045c0,11.767,4.839,22.743,13.231,30.6c-18.828,26.668-29.231,58.748-29.231,91.878
		c0,87.948,71.552,159.5,159.5,159.5h64c87.948,0,159.5-71.552,159.5-159.501C421.949,256.239,402.643,213.02,368.981,182.819z
		 M101.949,172.834V93.399c0-0.275,0.225-0.5,0.5-0.5h32.463C134.238,121.832,122.443,150.214,101.949,172.834z M69.949,178.921
		V87.876c0-14.875,12.103-26.978,26.978-26.978h38.022v17h-32.5c-8.547,0-15.5,6.953-15.5,15.5v80c0,3.972,1.514,7.587,3.979,10.333
		c-4.789,4.37-9.286,9-13.467,13.868C72.684,192.636,69.949,186.003,69.949,178.921z M262.449,445.899h-64
		c-79.678,0-144.5-64.823-144.5-144.501c0-40.903,17.49-80.054,47.986-107.412c30.514-27.375,48.014-65.175,48.014-103.709V43.776
		c0-4.354,3.265-7.987,7.595-8.451l189.657-20.32c0.044-0.005,0.086-0.009,0.126-0.009c0.13,0,0.249,0.045,0.369,0.273
		c0.158,0.3,0.056,0.419-0.063,0.558l-34.879,40.692c-1.165,1.359-1.806,3.091-1.806,4.881v28.877
		c0,38.534,17.5,76.334,48.014,103.709c30.496,27.358,47.986,66.509,47.986,107.413
		C406.949,381.076,342.127,445.899,262.449,445.899z"/>
	<path d="M387.302,275.889c-0.717-3.487-3.786-5.99-7.347-5.99h-30.862c-1.651-14.121-7.938-27.195-18.144-37.401
		c-2.929-2.927-7.677-2.929-10.607,0l-37.402,37.401h-53.448c-3.724-31.49-30.567-56-63.042-56s-59.317,24.51-63.042,56H80.943
		c-3.561,0-6.63,2.503-7.347,5.99c-1.757,8.548-2.647,17.131-2.647,25.509c0,70.305,57.196,127.501,127.5,127.501h64
		c70.304,0,127.5-57.196,127.5-127.5C389.949,293.02,389.059,284.437,387.302,275.889z M325.24,248.813
		c4.573,6.241,7.551,13.439,8.73,21.086h-29.816L325.24,248.813z M166.449,228.899c24.193,0,44.302,17.806,47.918,41h-95.836
		C122.148,246.704,142.257,228.899,166.449,228.899z M262.449,413.899h-64c-62.033,0-112.5-50.468-112.5-112.501
		c0-5.419,0.426-10.946,1.27-16.499H373.68c0.844,5.553,1.27,11.08,1.27,16.5C374.949,363.432,324.482,413.899,262.449,413.899z"/>
	<path d="M286.716,101.955c-4.109,0.518-7.022,4.269-6.505,8.378c5.123,40.702,25.502,78.87,57.383,107.472
		c1.433,1.284,3.223,1.917,5.006,1.917c2.057,0,4.104-0.841,5.586-2.491c2.766-3.084,2.509-7.825-0.574-10.592
		c-29.194-26.19-47.846-61.058-52.518-98.179C294.576,104.35,290.817,101.436,286.716,101.955z"/>
	<path d="M286.449,84.901c4.143,0,7.5-3.357,7.5-7.5V61.4c0-4.143-3.357-7.5-7.5-7.5s-7.5,3.357-7.5,7.5v16.001
		C278.949,81.543,282.307,84.901,286.449,84.901z"/>
	<path d="M216.699,303.253c-3.396-2.371-8.072-1.537-10.441,1.859c-9.082,13.016-23.963,20.786-39.809,20.786
		s-30.727-7.771-39.809-20.786c-2.37-3.398-7.045-4.23-10.441-1.859c-3.397,2.37-4.229,7.045-1.859,10.441
		c11.884,17.034,31.364,27.204,52.109,27.204s40.226-10.17,52.109-27.204C220.929,310.298,220.097,305.623,216.699,303.253z"/>
	<path d="M336.307,303.249c-3.396-2.369-8.072-1.538-10.442,1.858c-1.63,2.336-3.488,4.552-5.522,6.585
		c-9.16,9.161-21.34,14.206-34.295,14.206c-10.42,0-20.337-3.263-28.586-9.308l1.89-1.889c2.929-2.93,2.929-7.678,0-10.607
		c-2.93-2.928-7.678-2.928-10.607,0l-7.598,7.598c-2.929,2.93-2.929,7.678,0,10.606c11.994,11.994,27.94,18.6,44.901,18.6
		c16.962,0,32.908-6.605,44.902-18.599c2.655-2.656,5.083-5.552,7.216-8.608C340.535,310.295,339.703,305.619,336.307,303.249z"/>
</g>
<g>
</g>
<g>
</g>
<g>
</g>
<g>
</g>
<g>
</g>
<g>
</g>
<g>
</g>
<g>
</g>
<g>
</g>
<g>
</g>
<g>
</g>
<g>
</g>
<g>
</g>
<g>
</g>
<g>
</g>
</svg>
